<?xml version="1.0" encoding="UTF-8" standalone="no"?>
<!-- Created with Inkscape (http://www.inkscape.org/) -->

<svg
   width="200mm"
   height="200mm"
   viewBox="0 0 200 200"
   version="1.1"
   id="svg1"
   inkscape:version="1.4.4 (dcaf3e7d9e, 2026-05-05)"
   sodipodi:docname="compass-inactive.svg"
   xmlns:inkscape="http://www.inkscape.org/namespaces/inkscape"
   xmlns:sodipodi="http://sodipodi.sourceforge.net/DTD/sodipodi-0.dtd"
   xmlns="http://www.w3.org/2000/svg"
   xmlns:svg="http://www.w3.org/2000/svg">
  <sodipodi:namedview
     id="namedview1"
     pagecolor="#ffffff"
     bordercolor="#000000"
     borderopacity="0.25"
     inkscape:showpageshadow="2"
     inkscape:pageopacity="0.0"
     inkscape:pagecheckerboard="0"
     inkscape:deskcolor="#d1d1d1"
     inkscape:document-units="mm"
     showgrid="true"
     inkscape:zoom="0.7100098"
     inkscape:cx="76.055288"
     inkscape:cy="519.00692"
     inkscape:window-width="1920"
     inkscape:window-height="1008"
     inkscape:window-x="0"
     inkscape:window-y="0"
     inkscape:window-maximized="0"
     inkscape:current-layer="layer1">
    <inkscape:grid
       id="grid3"
       units="mm"
       originx="0"
       originy="0"
       spacingx="10"
       spacingy="10"
       empcolor="#0099e5"
       empopacity="0.30196078"
       color="#0099e5"
       opacity="0.14901961"
       empspacing="5"
       enabled="true"
       visible="true" />
  </sodipodi:namedview>
  <defs
     id="defs1" />
  <g
     inkscape:label="Layer 1"
     inkscape:groupmode="layer"
     id="layer1">
    <path
       id="path3"
       style="fill:#000000;fill-opacity:0;stroke:#888888;stroke-width:6;stroke-dasharray:none"
       d="m 99.343738,41.66962 -24.420727,59.07925 24.234326,57.61145 25.912083,-57.97839 z m 6.303852,58.330378 a 5.6475935,5.6842661 0 0 1 -5.647592,5.684272 5.6475935,5.6842661 0 0 1 -5.647593,-5.684272 5.6475935,5.6842661 0 0 1 5.647593,-5.68427 5.6475935,5.6842661 0 0 1 5.647592,5.68427 z m 57.88006,0 A 63.527645,63.527645 0 0 1 99.999998,163.52765 63.527645,63.527645 0 0 1 36.472353,99.999998 63.527645,63.527645 0 0 1 99.999998,36.472353 63.527645,63.527645 0 0 1 163.52765,99.999998 Z" />
  </g>
</svg>
