<?xml version="1.0" encoding="UTF-8" standalone="no"?>
<!-- Created with Inkscape (http://www.inkscape.org/) -->

<svg
   width="200mm"
   height="200mm"
   viewBox="0 0 200 200"
   version="1.1"
   id="svg1"
   sodipodi:docname="profile.svg"
   inkscape:version="1.4.4 (dcaf3e7d9e, 2026-05-05)"
   xmlns:inkscape="http://www.inkscape.org/namespaces/inkscape"
   xmlns:sodipodi="http://sodipodi.sourceforge.net/DTD/sodipodi-0.dtd"
   xmlns="http://www.w3.org/2000/svg"
   xmlns:svg="http://www.w3.org/2000/svg">
  <sodipodi:namedview
     id="namedview1"
     pagecolor="#ffffff"
     bordercolor="#000000"
     borderopacity="0.25"
     inkscape:showpageshadow="2"
     inkscape:pageopacity="0.0"
     inkscape:pagecheckerboard="0"
     inkscape:deskcolor="#d1d1d1"
     inkscape:document-units="mm"
     showgrid="true"
     inkscape:zoom="1"
     inkscape:cx="177"
     inkscape:cy="332.5"
     inkscape:window-width="1920"
     inkscape:window-height="1008"
     inkscape:window-x="0"
     inkscape:window-y="0"
     inkscape:window-maximized="0"
     inkscape:current-layer="layer1">
    <inkscape:grid
       id="grid1"
       units="mm"
       originx="0"
       originy="0"
       spacingx="0.99999998"
       spacingy="1"
       empcolor="#0099e5"
       empopacity="0.30196078"
       color="#0099e5"
       opacity="0.14901961"
       empspacing="5"
       enabled="true"
       visible="true" />
  </sodipodi:namedview>
  <defs
     id="defs1" />
  <g
     inkscape:label="Layer 1"
     inkscape:groupmode="layer"
     id="layer1">
    <path
       id="path2"
       style="fill:#4b5563;fill-opacity:1;stroke:#4b5563;stroke-width:4.11244;stroke-dasharray:none;stroke-opacity:1;paint-order:markers fill stroke"
       d="m 99.995339,102.00381 c -24.154486,-0.26975 -47.566306,14.3141 -57.30278,35.69956 -3.708298,7.87754 -5.64394,16.52813 -5.636318,25.18394 41.959032,0 83.918059,0 125.877099,0 -0.1053,-20.78817 -11.52983,-41.44773 -30.22645,-52.01554 -9.79395,-5.77813 -21.23929,-8.88382 -32.711551,-8.86796 z M 125.99808,63.110762 A 25.998075,25.998075 0 0 1 99.999999,89.108842 25.998075,25.998075 0 0 1 74.001922,63.110762 25.998075,25.998075 0 0 1 99.999999,37.11269 25.998075,25.998075 0 0 1 125.99808,63.110762 Z" />
  </g>
</svg>
